<?xml version="1.0" encoding="UTF-8" standalone="no"?>
<svg
   xmlns:dc="http://purl.org/dc/elements/1.1/"
   xmlns:cc="http://creativecommons.org/ns#"
   xmlns:rdf="http://www.w3.org/1999/02/22-rdf-syntax-ns#"
   xmlns:svg="http://www.w3.org/2000/svg"
   xmlns="http://www.w3.org/2000/svg"
   xmlns:sodipodi="http://sodipodi.sourceforge.net/DTD/sodipodi-0.dtd"
   xmlns:inkscape="http://www.inkscape.org/namespaces/inkscape"
   id="svg2"
   version="1.1"
   height="16"
   width="16"
   sodipodi:docname="mypaint-object-bumpbgoff-symbolic.svg"
   inkscape:version="0.92.1 r15371">
  <defs
     id="defs129">
    <symbol
       id="UpArrow">
      <title
         id="title1404">Up Arrow</title>
      <path
         d="M 36,9 58,31 58,46 42,30 42,62 30,62 30,30 14,46 14,31 z"
         style="stroke:none"
         id="path1406" />
    </symbol>
  </defs>
  <sodipodi:namedview
     pagecolor="#ffffff"
     bordercolor="#666666"
     borderopacity="1"
     objecttolerance="10"
     gridtolerance="10"
     guidetolerance="10"
     inkscape:pageopacity="0"
     inkscape:pageshadow="2"
     inkscape:window-width="1366"
     inkscape:window-height="704"
     id="namedview127"
     showgrid="false"
     inkscape:zoom="31.9375"
     inkscape:cx="6.3091976"
     inkscape:cy="8.24639"
     inkscape:window-x="0"
     inkscape:window-y="27"
     inkscape:window-maximized="1"
     inkscape:current-layer="svg2" />
  <metadata
     id="metadata7">
    <rdf:RDF>
      <cc:Work
         rdf:about="">
        <dc:format>image/svg+xml</dc:format>
        <dc:type
           rdf:resource="http://purl.org/dc/dcmitype/StillImage" />
        <dc:title></dc:title>
      </cc:Work>
    </rdf:RDF>
  </metadata>
  <g
     id="layer1"
     transform="matrix(0.96868885,0,0,-0.64549236,-53.745597,353.89534)"
     style="fill:#bebebe">
    <path
       id="path31334"
       style="color:#000000"
       d="m 55.90303,530.06896 c 0.826734,1.99241 2.79083,5.02236 3.894949,4.78732 2.474041,-0.11927 3.625486,-3.03238 6.687854,-3.16221 3.000552,0.47586 3.120318,3.48915 4.710127,-1.5281 -5.317869,0 -10.015368,-0.097 -15.29293,-0.097 z"
       inkscape:connector-curvature="0"
       sodipodi:nodetypes="ccccc" />
  </g>
  <g
     style="fill:#bebebe"
     transform="matrix(0.96868885,0,0,-0.64549236,-53.714286,352.98732)"
     id="g3897">
    <path
       sodipodi:nodetypes="ccccc"
       inkscape:connector-curvature="0"
       d="m 56.274747,537.6212 14.768662,-0.10624 -0.0091,-1.14004 -14.808081,0.097 z"
       style="color:#000000"
       id="path3895" />
  </g>
</svg>
