<?xml version="1.0" encoding="UTF-8" standalone="no"?>
<svg
   xmlns:dc="http://purl.org/dc/elements/1.1/"
   xmlns:cc="http://creativecommons.org/ns#"
   xmlns:rdf="http://www.w3.org/1999/02/22-rdf-syntax-ns#"
   xmlns:svg="http://www.w3.org/2000/svg"
   xmlns="http://www.w3.org/2000/svg"
   xmlns:sodipodi="http://sodipodi.sourceforge.net/DTD/sodipodi-0.dtd"
   xmlns:inkscape="http://www.inkscape.org/namespaces/inkscape"
   id="svg2"
   version="1.1"
   height="16"
   width="16"
   sodipodi:docname="mypaint-object-bumpselfon-symbolic.svg"
   inkscape:version="0.92.1 r15371">
  <defs
     id="defs129" />
  <sodipodi:namedview
     pagecolor="#ffffff"
     bordercolor="#666666"
     borderopacity="1"
     objecttolerance="10"
     gridtolerance="10"
     guidetolerance="10"
     inkscape:pageopacity="0"
     inkscape:pageshadow="2"
     inkscape:window-width="1366"
     inkscape:window-height="704"
     id="namedview127"
     showgrid="false"
     inkscape:zoom="31.9375"
     inkscape:cx="7.9999999"
     inkscape:cy="9.921842"
     inkscape:window-x="0"
     inkscape:window-y="27"
     inkscape:window-maximized="1"
     inkscape:current-layer="svg2" />
  <metadata
     id="metadata7">
    <rdf:RDF>
      <cc:Work
         rdf:about="">
        <dc:format>image/svg+xml</dc:format>
        <dc:type
           rdf:resource="http://purl.org/dc/dcmitype/StillImage" />
        <dc:title />
      </cc:Work>
    </rdf:RDF>
  </metadata>
  <g
     style="fill:#bebebe"
     transform="matrix(0.96868885,0,0,-0.64549236,-53.620353,350.29456)"
     id="g3897">
    <path
       sodipodi:nodetypes="cccsccssscc"
       inkscape:connector-curvature="0"
       d="m 55.838384,529.72941 c 0.695101,1.36375 2.494766,7.25105 3.701009,7.50374 2.344748,-0.21628 2.073971,-3.17791 5.200986,-3.98685 1.484114,-0.005 2.169294,1.04471 3.25985,1.06554 1.464342,0.028 2.530119,-2.12231 3.325024,-4.63094 -0.664734,0 -1.363535,-0.0603 -1.363535,-0.0603 0,0 -0.404283,3.23037 -1.909305,3.27472 -1.410812,0.0416 -2.098777,-1.26868 -3.882646,-1.26506 -1.910545,0.004 -2.064602,3.31985 -4.417205,3.33792 -1.235669,0.01 -2.394987,-5.23879 -2.394987,-5.23879 z"
       style="color:#000000"
       id="path3895" />
  </g>
</svg>
